<svg width="48" height="48" viewBox="0 0 48 48" fill="none" xmlns="http://www.w3.org/2000/svg">
<rect width="48" height="48" fill="white"/>
<mask id="path-1-inside-1_23_83" fill="white">
<path fill-rule="evenodd" clip-rule="evenodd" d="M19.7657 8.5C18.9928 8.5 18.2891 8.94533 17.9582 9.64383L15.8947 14H8C3.58172 14 0 17.5817 0 22V37C0 41.4183 3.58172 45 8 45H40C44.4183 45 48 41.4183 48 37V22C48 17.5817 44.4183 14 40 14H30.8947L28.5624 9.56851C28.2165 8.9114 27.5351 8.5 26.7925 8.5H19.7657Z"/>
</mask>
<path d="M17.9582 9.64383L15.247 8.35957L15.247 8.35957L17.9582 9.64383ZM15.8947 14V17H17.7932L18.606 15.2843L15.8947 14ZM30.8947 14L28.24 15.3972L29.0835 17H30.8947V14ZM28.5624 9.56851L31.2171 8.17127V8.17127L28.5624 9.56851ZM20.6694 10.9281C20.504 11.2773 20.1521 11.5 19.7657 11.5V5.5C17.8334 5.5 16.0741 6.61333 15.247 8.35957L20.6694 10.9281ZM18.606 15.2843L20.6694 10.9281L15.247 8.35957L13.1835 12.7157L18.606 15.2843ZM8 17H15.8947V11H8V17ZM3 22C3 19.2386 5.23858 17 8 17V11C1.92487 11 -3 15.9249 -3 22H3ZM3 37V22H-3V37H3ZM8 42C5.23858 42 3 39.7614 3 37H-3C-3 43.0751 1.92487 48 8 48V42ZM40 42H8V48H40V42ZM45 37C45 39.7614 42.7614 42 40 42V48C46.0751 48 51 43.0751 51 37H45ZM45 22V37H51V22H45ZM40 17C42.7614 17 45 19.2386 45 22H51C51 15.9249 46.0751 11 40 11V17ZM30.8947 17H40V11H30.8947V17ZM25.9076 10.9657L28.24 15.3972L33.5495 12.6028L31.2171 8.17127L25.9076 10.9657ZM26.7925 11.5C26.4213 11.5 26.0805 11.2943 25.9076 10.9657L31.2171 8.17127C30.3525 6.52851 28.6489 5.5 26.7925 5.5V11.5ZM19.7657 11.5H26.7925V5.5H19.7657V11.5Z" fill="#152C5B" mask="url(#path-1-inside-1_23_83)"/>
<circle r="6.5" transform="matrix(-1 0 0 1 24 30)" stroke="#FF498B" stroke-width="3"/>
<path d="M30.8041 19.8472H39.7356" stroke="#152C5B" stroke-width="3" stroke-linecap="round"/>
</svg>
