<svg width="48" height="48" viewBox="0 0 48 48" fill="none" xmlns="http://www.w3.org/2000/svg">
<rect width="48" height="48" fill="white"/>
<path d="M1.5 40.5C1.5 41.6968 2.50921 43.1842 5.06422 44.4617C7.52951 45.6943 11.0402 46.5 15 46.5C18.9598 46.5 22.4705 45.6943 24.9358 44.4617C27.4908 43.1842 28.5 41.6968 28.5 40.5C28.5 39.3032 27.4908 37.8158 24.9358 36.5383C22.4705 35.3057 18.9598 34.5 15 34.5C11.0402 34.5 7.52951 35.3057 5.06422 36.5383C2.50921 37.8158 1.5 39.3032 1.5 40.5Z" stroke="#152C5B" stroke-width="3"/>
<path d="M26.5 11.0562C26.5 13.8671 25.1044 21.1705 22.7766 27.8225C21.6183 31.1323 20.2669 34.1683 18.8126 36.3472C18.0855 37.4365 17.3714 38.2524 16.6942 38.7835C16.022 39.3108 15.4629 39.5 15 39.5C14.5371 39.5 13.978 39.3108 13.3058 38.7835C12.6286 38.2524 11.9145 37.4365 11.1874 36.3472C9.7331 34.1683 8.38169 31.1323 7.22343 27.8225C4.89565 21.1705 3.5 13.8671 3.5 11.0562C3.5 5.99706 8.41174 1.5 15 1.5C21.5883 1.5 26.5 5.99706 26.5 11.0562Z" fill="white" stroke="#152C5B" stroke-width="3"/>
<circle r="5.5" transform="matrix(-1 0 0 1 15 13)" stroke="#FF498B" stroke-width="3"/>
</svg>
