<svg width="184" height="36" viewBox="0 0 184 36" fill="none" xmlns="http://www.w3.org/2000/svg">
<rect width="36" height="36" rx="1" fill="white"/>
<path d="M16.0979 7.8541C16.6966 6.01148 19.3034 6.01148 19.9021 7.8541L21.1432 11.6738C21.4109 12.4978 22.1789 13.0557 23.0453 13.0557H27.0615C28.999 13.0557 29.8045 15.535 28.2371 16.6738L24.9879 19.0344C24.2869 19.5437 23.9936 20.4465 24.2614 21.2705L25.5024 25.0902C26.1012 26.9328 23.9922 28.465 22.4248 27.3262L19.1756 24.9656C18.4746 24.4563 17.5254 24.4563 16.8244 24.9656L13.5752 27.3262C12.0078 28.465 9.89885 26.9328 10.4976 25.0902L11.7386 21.2705C12.0064 20.4465 11.7131 19.5437 11.0121 19.0344L7.76289 16.6738C6.19546 15.535 7.00102 13.0557 8.93846 13.0557H12.9547C13.8211 13.0557 14.5891 12.4978 14.8568 11.6738L16.0979 7.8541Z" fill="#FFCC47"/>
<rect x="38" width="36" height="36" rx="1" fill="white"/>
<path d="M54.0979 7.8541C54.6966 6.01148 57.3034 6.01148 57.9021 7.8541L59.1432 11.6738C59.4109 12.4978 60.1789 13.0557 61.0453 13.0557H65.0615C66.999 13.0557 67.8045 15.535 66.2371 16.6738L62.9879 19.0344C62.2869 19.5437 61.9936 20.4465 62.2614 21.2705L63.5024 25.0902C64.1012 26.9328 61.9922 28.465 60.4248 27.3262L57.1756 24.9656C56.4746 24.4563 55.5254 24.4563 54.8244 24.9656L51.5752 27.3262C50.0078 28.465 47.8988 26.9328 48.4976 25.0902L49.7386 21.2705C50.0064 20.4465 49.7131 19.5437 49.0121 19.0344L45.7629 16.6738C44.1955 15.535 45.001 13.0557 46.9385 13.0557H50.9547C51.8211 13.0557 52.5891 12.4978 52.8568 11.6738L54.0979 7.8541Z" fill="#FFCC47"/>
<rect x="76" width="36" height="36" rx="1" fill="white"/>
<path d="M92.0979 7.8541C92.6966 6.01148 95.3034 6.01148 95.9021 7.8541L97.1432 11.6738C97.4109 12.4978 98.1789 13.0557 99.0453 13.0557H103.062C104.999 13.0557 105.805 15.535 104.237 16.6738L100.988 19.0344C100.287 19.5437 99.9936 20.4465 100.261 21.2705L101.502 25.0902C102.101 26.9328 99.9922 28.465 98.4248 27.3262L95.1756 24.9656C94.4746 24.4563 93.5254 24.4563 92.8244 24.9656L89.5752 27.3262C88.0078 28.465 85.8988 26.9328 86.4976 25.0902L87.7386 21.2705C88.0064 20.4465 87.7131 19.5437 87.0121 19.0344L83.7629 16.6738C82.1955 15.535 83.001 13.0557 84.9385 13.0557H88.9547C89.8211 13.0557 90.5891 12.4978 90.8568 11.6738L92.0979 7.8541Z" fill="#FFCC47"/>
<rect x="112" width="36" height="36" rx="1" fill="white"/>
<path d="M128.098 7.8541C128.697 6.01148 131.303 6.01148 131.902 7.8541L133.143 11.6738C133.411 12.4978 134.179 13.0557 135.045 13.0557H139.062C140.999 13.0557 141.805 15.535 140.237 16.6738L136.988 19.0344C136.287 19.5437 135.994 20.4465 136.261 21.2705L137.502 25.0902C138.101 26.9328 135.992 28.465 134.425 27.3262L131.176 24.9656C130.475 24.4563 129.525 24.4563 128.824 24.9656L125.575 27.3262C124.008 28.465 121.899 26.9328 122.498 25.0902L123.739 21.2705C124.006 20.4465 123.713 19.5437 123.012 19.0344L119.763 16.6738C118.195 15.535 119.001 13.0557 120.938 13.0557H124.955C125.821 13.0557 126.589 12.4978 126.857 11.6738L128.098 7.8541Z" fill="#FFCC47"/>
<rect x="148" width="36" height="36" rx="1" fill="white"/>
<path d="M164.098 7.8541C164.697 6.01148 167.303 6.01148 167.902 7.8541L169.143 11.6738C169.411 12.4978 170.179 13.0557 171.045 13.0557H175.062C176.999 13.0557 177.805 15.535 176.237 16.6738L172.988 19.0344C172.287 19.5437 171.994 20.4465 172.261 21.2705L173.502 25.0902C174.101 26.9328 171.992 28.465 170.425 27.3262L167.176 24.9656C166.475 24.4563 165.525 24.4563 164.824 24.9656L161.575 27.3262C160.008 28.465 157.899 26.9328 158.498 25.0902L159.739 21.2705C160.006 20.4465 159.713 19.5437 159.012 19.0344L155.763 16.6738C154.195 15.535 155.001 13.0557 156.938 13.0557H160.955C161.821 13.0557 162.589 12.4978 162.857 11.6738L164.098 7.8541Z" fill="#FFCC47"/>
</svg>
