<svg width="36" height="36" viewBox="0 0 36 36" fill="none" xmlns="http://www.w3.org/2000/svg">
<rect width="36" height="36" rx="1" fill="white"/>
<path d="M16.0979 7.8541C16.6966 6.01148 19.3034 6.01148 19.9021 7.8541L21.1432 11.6738C21.4109 12.4978 22.1789 13.0557 23.0453 13.0557H27.0615C28.999 13.0557 29.8045 15.535 28.2371 16.6738L24.9879 19.0344C24.2869 19.5437 23.9936 20.4465 24.2614 21.2705L25.5024 25.0902C26.1012 26.9328 23.9922 28.465 22.4248 27.3262L19.1756 24.9656C18.4746 24.4563 17.5254 24.4563 16.8244 24.9656L13.5752 27.3262C12.0078 28.465 9.89885 26.9328 10.4976 25.0902L11.7386 21.2705C12.0064 20.4465 11.7131 19.5437 11.0121 19.0344L7.76289 16.6738C6.19546 15.535 7.00102 13.0557 8.93846 13.0557H12.9547C13.8211 13.0557 14.5891 12.4978 14.8568 11.6738L16.0979 7.8541Z" fill="#FFCC47"/>
</svg>
